<svg xmlns="http://www.w3.org/2000/svg" width="128" height="128" viewBox="0 0 128 128">
  <title>MUSIC PLAYER</title>
  <g>
    <g>
      <circle cx="61.579" cy="68.841" r="34.508" fill="#ff7eb7"/>
      <circle cx="61.579" cy="68.841" r="27.603" fill="#ffa7ce"/>
      <polygon points="52.794 80.004 52.794 57.678 72.5 68.841 52.794 80.004" fill="#d2ddff"/>
      <path d="M100.928,43.767a1.751,1.751,0,0,1-1.75-1.75A15.633,15.633,0,0,0,83.562,26.4a1.75,1.75,0,0,1,0-3.5,19.137,19.137,0,0,1,19.116,19.116A1.75,1.75,0,0,1,100.928,43.767Z" fill="#01eba4"/>
      <path d="M94.752,43.767A1.75,1.75,0,0,1,93,42.017a9.45,9.45,0,0,0-9.44-9.439,1.75,1.75,0,1,1,0-3.5A12.954,12.954,0,0,1,96.5,42.017,1.75,1.75,0,0,1,94.752,43.767Z" fill="#01eba4"/>
      <circle cx="83.563" cy="42.017" r="4.62" fill="#96ffd1"/>
    </g>
    <g>
      <path d="M76.525,89.939c-.19.135-.381.268-.576.4A1.75,1.75,0,1,0,77.9,93.245c.22-.147.439-.3.655-.451a1.75,1.75,0,1,0-2.026-2.855Z" fill="#3536c0"/>
      <path d="M80.489,89.025a1.749,1.749,0,0,0,2.474-.075,29.359,29.359,0,0,0,2.846-36.683,1.75,1.75,0,0,0-2.887,1.978,25.861,25.861,0,0,1-2.508,32.307A1.749,1.749,0,0,0,80.489,89.025Z" fill="#3536c0"/>
      <path d="M61.579,42.988a25.711,25.711,0,0,1,9.65,1.86A1.75,1.75,0,0,0,72.535,41.6,29.353,29.353,0,1,0,71.8,96.365a1.75,1.75,0,0,0-1.219-3.281,25.857,25.857,0,1,1-9.005-50.1Z" fill="#3536c0"/>
      <path d="M74.25,68.841a1.748,1.748,0,0,0-.888-1.522L53.656,56.156a1.75,1.75,0,0,0-2.612,1.522V72.083a1.75,1.75,0,0,0,3.5,0v-11.4l14.405,8.16-17.017,9.64a1.75,1.75,0,0,0,.864,3.273,1.731,1.731,0,0,0,.86-.228L73.362,70.364A1.75,1.75,0,0,0,74.25,68.841Z" fill="#3536c0"/>
      <path d="M47.7,39.162A32.748,32.748,0,0,1,77.459,40.2a6.4,6.4,0,1,0,1.888-2.949,36.229,36.229,0,0,0-33.137-1.26A1.75,1.75,0,1,0,47.7,39.162Zm35.866-.016a2.871,2.871,0,1,1-2.87,2.871A2.874,2.874,0,0,1,83.562,39.146Z" fill="#3536c0"/>
      <path d="M40.232,43.477a1.743,1.743,0,0,0,1.081-.375c.313-.246.628-.485.949-.72A1.75,1.75,0,1,0,40.2,39.558q-.53.389-1.046.794a1.75,1.75,0,0,0,1.083,3.125Z" fill="#3536c0"/>
      <path d="M89.2,48.077a1.749,1.749,0,0,0-.469,2.43,32.76,32.76,0,1,1-52.429-2.5,1.75,1.75,0,0,0-2.7-2.228,36.255,36.255,0,1,0,58.027,2.768A1.749,1.749,0,0,0,89.2,48.077Z" fill="#3536c0"/>
      <path d="M83.562,22.9a1.75,1.75,0,0,0,0,3.5A15.634,15.634,0,0,1,99.179,42.017a1.75,1.75,0,0,0,3.5,0A19.137,19.137,0,0,0,83.562,22.9Z" fill="#3536c0"/>
      <path d="M93,42.017a1.75,1.75,0,1,0,3.5,0,12.954,12.954,0,0,0-12.94-12.939,1.75,1.75,0,1,0,0,3.5A9.449,9.449,0,0,1,93,42.017Z" fill="#3536c0"/>
    </g>
  </g>
</svg>
